<svg width="16" height="17" viewBox="0 0 16 17" fill="none" xmlns="http://www.w3.org/2000/svg">
<path fill-rule="evenodd" clip-rule="evenodd" d="M8 1.5C11.866 1.5 15 4.63401 15 8.5C15 12.366 11.866 15.5 8 15.5C4.13401 15.5 1 12.366 1 8.5C1 4.63401 4.13401 1.5 8 1.5ZM11.1464 6.42871L7.09723 10.4779L4.85355 8.23424C4.65829 8.03898 4.34171 8.03898 4.14645 8.23424C3.95118 8.4295 3.95118 8.74609 4.14645 8.94135L6.74368 11.5386C6.93894 11.7338 7.25553 11.7338 7.45079 11.5386L11.8536 7.13582C12.0488 6.94055 12.0488 6.62397 11.8536 6.42871C11.6583 6.23345 11.3417 6.23345 11.1464 6.42871Z" fill="#1CC461"/>
</svg>
